<svg xmlns="http://www.w3.org/2000/svg" width="32" height="36"><path d="M19.418 15.138c-1.036 0-1.855.882-1.855 1.98s.836 1.98 1.855 1.98c1.036 0 1.855-.882 1.855-1.98s-.836-1.98-1.855-1.98zm-6.636 0c-1.036 0-1.855.882-1.855 1.98s.836 1.98 1.855 1.98c1.036 0 1.855-.882 1.855-1.98.018-1.098-.818-1.98-1.855-1.98zM28.255.162H3.891C1.836.162.164 1.818.164 3.852v24.12c0 2.034 1.673 3.69 3.727 3.69h20.618l-.964-3.294 2.327 2.124 2.2 1.998L32 35.856V3.852c-.018-2.034-1.691-3.69-3.745-3.69zm-7.018 23.31l-1.2-1.44c2.382-.666 3.291-2.124 3.291-2.124-.745.486-1.455.828-2.091 1.062-.909.378-1.782.612-2.636.774-1.745.324-3.345.234-4.709-.018-1.036-.198-1.927-.468-2.673-.774a10.68 10.68 0 0 1-1.327-.612c-.055-.036-.109-.054-.164-.09-.036-.018-.055-.036-.073-.036l-.509-.306s.873 1.422 3.182 2.106L11.11 23.49c-4.018-.126-5.545-2.718-5.545-2.718 0-5.742 2.618-10.404 2.618-10.404 2.618-1.926 5.091-1.872 5.091-1.872l.182.216c-3.273.918-4.764 2.34-4.764 2.34s.4-.216 1.073-.504c1.945-.846 3.491-1.062 4.127-1.134.109-.018.2-.036.309-.036a15.54 15.54 0 0 1 3.673-.036c1.727.198 3.582.702 5.473 1.71 0 0-1.436-1.35-4.527-2.268l.255-.288s2.491-.054 5.091 1.872c0 0 2.618 4.662 2.618 10.404 0-.018-1.527 2.574-5.545 2.7h0z" fill="#edf2f8"/><defs /></svg>