<svg width="36" height="36" xmlns="http://www.w3.org/2000/svg"><path d="M18 0c9.941 0 18 8.059 18 18s-8.059 18-18 18S0 27.941 0 18 8.059 0 18 0zm7.265 7.2c-.731 0-1.376.424-1.677 1.039l-4.366-.912a.462.462 0 00-.344.064.414.414 0 00-.194.297l-1.333 6.192c-2.796.085-5.312.912-7.14 2.205a2.66 2.66 0 00-1.828-.721c-1.462 0-2.624 1.166-2.624 2.587 0 1.06.645 1.951 1.548 2.354a4.64 4.64 0 00-.065.785c0 3.987 4.71 7.231 10.516 7.231s10.516-3.223 10.516-7.231c0-.254-.022-.53-.065-.785a2.61 2.61 0 001.548-2.375h.003c0-1.442-1.183-2.587-2.624-2.587a2.66 2.66 0 00-1.828.721c-1.806-1.272-4.28-2.099-7.032-2.205l1.204-5.556 3.914.827c.043.975.86 1.76 1.871 1.76a1.86 1.86 0 001.871-1.845A1.86 1.86 0 0025.265 7.2zm-3.056 16.794a.51.51 0 010 .679h.002c-1.236 1.219-3.54 1.348-4.354 1.356l-.098.001c-.731 0-3.183-.106-4.452-1.357a.47.47 0 010-.679.485.485 0 01.688 0c.817.806 2.538 1.081 3.763 1.081s2.968-.276 3.763-1.081a.485.485 0 01.688 0zm-.342-6.043a1.86 1.86 0 011.871 1.845c0 .997-.839 1.845-1.871 1.845a1.86 1.86 0 01-1.871-1.845 1.86 1.86 0 011.871-1.845zm-8.258-.021a1.86 1.86 0 011.871 1.845 1.86 1.86 0 01-1.871 1.845 1.846 1.846 0 01-1.871-1.845 1.86 1.86 0 011.871-1.845z" fill="#FFF" fill-rule="nonzero"/></svg>