<svg xmlns="http://www.w3.org/2000/svg" width="195" height="195"><path d="M195 0v195H0V0h195zM70.63 44H32.651v2.201l12.232 14.735c1.201 1.082 1.814 2.672 1.651 4.28h0v57.9c.356 2.089-.302 4.222-1.774 5.747h0L31 145.554v2.201h39.019v-2.201l-13.761-16.691a6.91 6.91 0 0 1-1.896-5.747h0V73.042l34.248 74.714h3.975l29.417-74.714-.001 59.954c-.008 1.248-.094 1.587-1.039 2.532h0l-10.58 10.272V148h51.373v-2.201l-10.213-10.027c-.902-.687-1.349-1.817-1.162-2.935h0V59.163c-.187-1.118.26-2.247 1.162-2.935h0L162 46.201V44h-36.205l-25.809 64.381L70.63 44z" fill="#fff"/></svg>